<svg width="28" height="28" viewBox="0 0 28 28" fill="none" xmlns="http://www.w3.org/2000/svg">
<path opacity="0.4" d="M11.5751 2.99983C13.0756 2.11122 14.9244 2.11122 16.4249 2.99983L22.0751 6.34592C23.5756 7.23453 24.5 8.87674 24.5 10.654V17.3461C24.5 19.1233 23.5756 20.7656 22.0751 21.6542L16.4249 25.0003C14.9244 25.8889 13.0756 25.8889 11.5751 25.0003L5.92487 21.6542C4.42436 20.7656 3.5 19.1233 3.5 17.3461V10.654C3.5 8.87674 4.42436 7.23453 5.92487 6.34592L11.5751 2.99983Z" fill="white"/>
<path d="M11.5751 25C13.0757 25.8886 14.9244 25.8886 16.4249 25L21.3512 22.0826C19.8837 19.481 17.1411 17.7307 14 17.7307C10.8589 17.7307 8.11636 19.481 6.6488 22.0826L11.5751 25Z" fill="white"/>
<circle cx="3.5" cy="3.5" r="3.5" transform="matrix(1 0 0 -1 10.5 15.1667)" fill="white"/>
</svg>
