<svg width="28" height="28" viewBox="0 0 28 28" fill="none" xmlns="http://www.w3.org/2000/svg">
<path opacity="0.6" d="M15.1136 3.5H12.8864C11.6563 3.5 10.6591 4.4402 10.6591 5.6C10.6591 6.92721 9.23903 7.77102 8.07333 7.13646L7.95493 7.07201C6.88964 6.49211 5.52746 6.83625 4.91241 7.84067L3.79877 9.65932C3.18373 10.6637 3.54872 11.9481 4.61401 12.528C5.78026 13.1628 5.78026 14.8372 4.61401 15.472C3.54872 16.0519 3.18372 17.3363 3.79877 18.3407L4.91241 20.1593C5.52746 21.1637 6.88964 21.5079 7.95493 20.928L8.07333 20.8635C9.23903 20.229 10.6591 21.0728 10.6591 22.4C10.6591 23.5598 11.6563 24.5 12.8864 24.5H15.1136C16.3437 24.5 17.3409 23.5598 17.3409 22.4C17.3409 21.0728 18.761 20.229 19.9267 20.8635L20.0451 20.928C21.1104 21.5079 22.4725 21.1637 23.0876 20.1593L24.2012 18.3407C24.8163 17.3363 24.4513 16.0519 23.386 15.472C22.2197 14.8372 22.2197 13.1628 23.386 12.528C24.4513 11.9481 24.8163 10.6637 24.2012 9.65933L23.0876 7.84068C22.4725 6.83627 21.1104 6.49213 20.0451 7.07203L19.9267 7.13647C18.761 7.77103 17.3409 6.92722 17.3409 5.6C17.3409 4.4402 16.3437 3.5 15.1136 3.5Z" fill="white"/>
<circle cx="14" cy="14" r="3.5" fill="white"/>
</svg>
