<svg width="28" height="28" viewBox="0 0 28 28" fill="none" xmlns="http://www.w3.org/2000/svg">
<path d="M23.3333 9.33337H21V23.3334C21 24.622 22.0447 25.6667 23.3333 25.6667C24.622 25.6667 25.6667 24.622 25.6667 23.3334V11.6667C25.6667 10.378 24.622 9.33337 23.3333 9.33337Z" fill="white"/>
<path opacity="0.6" d="M17.5 2.33337H5.83337C3.90038 2.33337 2.33337 3.90038 2.33337 5.83337V22.1667C2.33337 24.0997 3.90038 25.6667 5.83337 25.6667H23.3334C22.0447 25.6667 21 24.622 21 23.3334V5.83337C21 3.90038 19.433 2.33337 17.5 2.33337Z" fill="white"/>
<path fillRule="evenodd" clipRule="evenodd" d="M6.125 8.16663C6.125 7.68338 6.51675 7.29163 7 7.29163H16.3333C16.8166 7.29163 17.2083 7.68338 17.2083 8.16663C17.2083 8.64988 16.8166 9.04163 16.3333 9.04163H7C6.51675 9.04163 6.125 8.64988 6.125 8.16663Z" fill="white"/>
<path fillRule="evenodd" clipRule="evenodd" d="M6.125 14C6.125 13.5168 6.51675 13.125 7 13.125L16.3333 13.125C16.8166 13.125 17.2083 13.5168 17.2083 14C17.2083 14.4832 16.8166 14.875 16.3333 14.875L7 14.875C6.51675 14.875 6.125 14.4832 6.125 14Z" fill="white"/>
<path fillRule="evenodd" clipRule="evenodd" d="M6.125 19.8334C6.125 19.3501 6.51675 18.9584 7 18.9584H11.6667C12.1499 18.9584 12.5417 19.3501 12.5417 19.8334C12.5417 20.3166 12.1499 20.7084 11.6667 20.7084H7C6.51675 20.7084 6.125 20.3166 6.125 19.8334Z" fill="white"/>
</svg>
