<svg width="28" height="28" viewBox="0 0 28 28" fill="none" xmlns="http://www.w3.org/2000/svg">
<path opacity="0.6" d="M11.5751 2.99983C13.0756 2.11122 14.9244 2.11122 16.4249 2.99983L22.0751 6.34592C23.5756 7.23453 24.5 8.87674 24.5 10.654V17.3461C24.5 19.1233 23.5756 20.7656 22.0751 21.6542L16.4249 25.0003C14.9244 25.8889 13.0756 25.8889 11.5751 25.0003L5.92487 21.6542C4.42436 20.7656 3.5 19.1233 3.5 17.3461V10.654C3.5 8.87674 4.42436 7.23452 5.92487 6.34592L11.5751 2.99983Z" fill="white"/>
<path d="M12.8333 19.8333C12.8333 19.189 13.3556 18.6667 14 18.6667C14.6443 18.6667 15.1666 19.189 15.1666 19.8333C15.1666 20.4777 14.6443 21 14 21C13.3556 21 12.8333 20.4777 12.8333 19.8333Z" fill="white"/>
<path fillRule="evenodd" clipRule="evenodd" d="M14 17.2084C13.5168 17.2084 13.125 16.8166 13.125 16.3334L13.125 8.16671C13.125 7.68346 13.5168 7.29171 14 7.29171C14.4832 7.29171 14.875 7.68346 14.875 8.16671L14.875 16.3334C14.875 16.8166 14.4832 17.2084 14 17.2084Z" fill="white"/>
</svg>
