<svg width="28" height="28" viewBox="0 0 28 28" fill="none" xmlns="http://www.w3.org/2000/svg">
<path opacity="0.6" d="M14 4.66671C14 3.37804 15.0447 2.33337 16.3333 2.33337H21C22.2887 2.33337 23.3333 3.37804 23.3333 4.66671V23.3334C23.3333 24.622 22.2887 25.6667 21 25.6667H16.3333C15.0447 25.6667 14 24.622 14 23.3334V4.66671Z" fill="white"/>
<path opacity="0.6" d="M5.83337 4.66671C5.83337 3.37804 6.87804 2.33337 8.16671 2.33337C9.45537 2.33337 10.5 3.37804 10.5 4.66671V20.7538C10.5 21.6751 10.2273 22.5758 9.71628 23.3424L8.65207 24.9387C8.42117 25.285 7.91224 25.285 7.68134 24.9387L6.61714 23.3424C6.10608 22.5758 5.83337 21.6751 5.83337 20.7538V4.66671Z" fill="white"/>
<path d="M10.5 7.00004L5.83337 7.00004V4.33337C5.83337 3.2288 6.7288 2.33337 7.83337 2.33337H8.50004C9.60461 2.33337 10.5 3.2288 10.5 4.33337V7.00004Z" fill="white"/>
<path opacity="0.6" fillRule="evenodd" clipRule="evenodd" d="M20.125 7C20.125 6.51675 20.5168 6.125 21 6.125H23.3333V7.875H21C20.5168 7.875 20.125 7.48325 20.125 7ZM20.125 11.6667C20.125 11.1834 20.5168 10.7917 21 10.7917H23.3333V12.5417H21C20.5168 12.5417 20.125 12.1499 20.125 11.6667ZM20.125 16.3333C20.125 15.8501 20.5168 15.4583 21 15.4583H23.3333V17.2083H21C20.5168 17.2083 20.125 16.8166 20.125 16.3333ZM20.125 21C20.125 20.5168 20.5168 20.125 21 20.125H23.3333V21.875H21C20.5168 21.875 20.125 21.4832 20.125 21Z" fill="white"/>
</svg>
