<svg width="28" height="28" viewBox="0 0 28 28" fill="none" xmlns="http://www.w3.org/2000/svg">
<path opacity="0.6" d="M2.33337 7.00004C2.33337 4.42271 4.42271 2.33337 7.00004 2.33337H21C23.5774 2.33337 25.6667 4.42271 25.6667 7.00004V21C25.6667 23.5774 23.5774 25.6667 21 25.6667H7.00004C4.42271 25.6667 2.33337 23.5774 2.33337 21V7.00004Z" fill="white"/>
<path fillRule="evenodd" clipRule="evenodd" d="M16.0417 10.5C16.0417 10.0168 16.4335 9.625 16.9167 9.625L19.1123 9.625C19.8857 9.625 20.5926 10.0619 20.9385 10.7536L21.7827 12.442C21.9988 12.8743 21.8236 13.3998 21.3914 13.616C20.9591 13.8321 20.4335 13.6569 20.2174 13.2246L19.6442 12.0781L16.7903 16.4314C15.9667 17.6877 14.1141 17.6544 13.3362 16.3693L11.11 12.6915C10.9934 12.4989 10.7118 12.5054 10.6043 12.7032L7.76875 17.918C7.53791 18.3425 7.00661 18.4996 6.58206 18.2687C6.15751 18.0379 6.00049 17.5066 6.23134 17.082L9.06685 11.8673C9.81974 10.4826 11.791 10.437 12.6071 11.7853L14.8333 15.4631C14.9445 15.6467 15.2091 15.6514 15.3268 15.4719L18.0126 11.375H16.9167C16.4335 11.375 16.0417 10.9832 16.0417 10.5Z" fill="white"/>
</svg>
