<svg width="14" height="16" viewBox="0 0 14 16" xmlns="http://www.w3.org/2000/svg">
<path fill-rule="evenodd" clip-rule="evenodd" d="M13.1082 4.69635H0.872932C0.609403 4.69635 0.402344 4.90341 0.402344 5.16693C0.402344 5.43046 0.609403 5.63752 0.872932 5.63752H1.34352V15.0493C1.34352 15.5669 1.76705 15.9905 2.2847 15.9905H11.6965C12.2141 15.9905 12.6376 15.5669 12.6376 15.0493V5.63752H13.1082C13.3718 5.63752 13.5788 5.43046 13.5788 5.16693C13.5788 4.90341 13.3718 4.69635 13.1082 4.69635ZM5.10823 13.1669C5.10823 13.6846 4.6847 14.1081 4.16705 14.1081C3.6494 14.1081 3.22587 13.6846 3.22587 13.1669V7.51988C3.22587 7.00223 3.6494 6.5787 4.16705 6.5787C4.6847 6.5787 5.10823 7.00223 5.10823 7.51988V13.1669ZM7.93176 13.1669C7.93176 13.6846 7.50823 14.1081 6.99058 14.1081C6.47293 14.1081 6.0494 13.6846 6.0494 13.1669V7.51988C6.0494 7.00223 6.47293 6.5787 6.99058 6.5787C7.50823 6.5787 7.93176 7.00223 7.93176 7.51988V13.1669ZM10.7553 13.1669C10.7553 13.6846 10.3318 14.1081 9.81411 14.1081C9.29646 14.1081 8.87293 13.6846 8.87293 13.1669V7.51988C8.87293 7.00223 9.29646 6.5787 9.81411 6.5787C10.3318 6.5787 10.7553 7.00223 10.7553 7.51988V13.1669ZM12.6376 1.87282H8.87293C8.87293 1.35517 8.4494 0.931641 7.93176 0.931641H6.0494C5.53176 0.931641 5.10823 1.35517 5.10823 1.87282H1.34352C0.825873 1.87282 0.402344 2.29635 0.402344 2.81399V3.75517H13.5788V2.81399C13.5788 2.29635 13.1553 1.87282 12.6376 1.87282Z" />
</svg>
